<!-- Generated by IcoMoon.io -->
<svg version="1.1" xmlns="http://www.w3.org/2000/svg" width="416" height="448" viewBox="0 0 416 448">
<title></title>
<g id="icomoon-ignore">
</g>
<path d="M296.5 239.25l64.25-62.5-105.5-15.5-7.5-15-39.75-80.5v240.75l14.75 7.75 79.5 42-15-88.75-3-16.5zM409.5 173.75l-90.75 88.5 21.5 125c1.75 11-2.25 17.5-10 17.5-2.75 0-6.25-1-10-3l-112.25-59-112.25 59c-3.75 2-7.25 3-10 3-7.75 0-11.75-6.5-10-17.5l21.5-125-91-88.5c-10.75-10.75-7.25-21.25 7.75-23.5l125.5-18.25 56.25-113.75c3.25-6.75 7.75-10.25 12.25-10.25v0c4.5 0 8.75 3.5 12.25 10.25l56.25 113.75 125.5 18.25c15 2.25 18.5 12.75 7.5 23.5z"></path>
</svg>
