<?xml version="1.0" encoding="utf-8"?>
<svg version="1.1" width="416" height="448" viewBox="0 0 416 448" xmlns="http://www.w3.org/2000/svg">
  <title/>
  <g id="icomoon-ignore"/>
  <path d="M284.25 251l76.5-74.25-105.5-15.5-47.25-95.5-47.25 95.5-105.5 15.5 76.5 74.25-18.25 105.25 94.5-49.75 94.25 49.75zM416 161.75c0 4.5-3.25 8.75-6.5 12l-90.75 88.5 21.5 125c0.25 1.75 0.25 3.25 0.25 5 0 6.75-3 12.5-10.25 12.5-3.5 0-7-1.25-10-3l-112.25-59-112.25 59c-3.25 1.75-6.5 3-10 3-7.25 0-10.5-6-10.5-12.5 0-1.75 0.25-3.25 0.5-5l21.5-125-91-88.5c-3-3.25-6.25-7.5-6.25-12 0-7.5 7.75-10.5 14-11.5l125.5-18.25 56.25-113.75c2.25-4.75 6.5-10.25 12.25-10.25s10 5.5 12.25 10.25l56.25 113.75 125.5 18.25c6 1 14 4 14 11.5z"/>
  <g>
    <line style="stroke: rgb(0, 0, 0); stroke-width: 16px;" x1="151.248" y1="337.557" x2="149.542" y2="161.877"/>
  </g>
  <path stroke-width="0" d="M 131.592 157.815 C 135.807 157.616 136.155 157.896 138.333 158.852 C 140.751 159.914 143.735 161.693 145.333 164.296 C 147.147 167.254 148.443 172.701 147.925 176.222 C 147.63 178.233 146.68 180.2 145.455 181.929 C 145.72 182.599 145.945 183.343 146.129 184.202 C 147.004 188.298 146.562 195.116 146.129 201.313 C 145.641 208.292 142.773 216.87 143.017 224.128 C 143.249 231.008 147.241 241.422 147.166 243.832 C 147.141 244.601 146.685 244.437 146.647 244.869 C 146.599 245.42 147.214 246.392 147.166 246.943 C 147.128 247.375 146.647 247.634 146.647 247.98 C 146.647 248.326 147.115 248.447 147.166 249.017 C 147.262 250.103 146.035 252.129 146.129 254.721 C 146.275 258.753 149.164 266.21 149.758 271.832 C 150.333 277.267 150.123 282.72 149.758 287.906 C 149.406 292.905 147.735 296.2 147.684 302.425 C 147.612 311.232 152.434 329.701 151.314 337.165 C 150.629 341.728 149.147 343.437 146.647 346.239 C 143.668 349.58 136.574 352.792 133.684 355.313 C 131.74 357.01 131.367 358.561 129.795 359.721 C 128.183 360.911 126.177 361.869 124.092 362.313 C 121.879 362.785 119.323 363.092 116.832 362.313 C 113.906 361.4 109.702 358.55 107.758 356.351 C 106.198 354.586 105.637 352.93 105.166 350.647 C 104.601 347.911 104.287 345.006 105.166 340.795 C 106.481 334.491 112.23 319.332 115.017 315.647 C 116.339 313.9 117.96 315.249 118.647 313.573 C 119.92 310.469 117.022 300.734 117.092 294.128 C 117.163 287.345 119.661 279.621 119.166 273.388 C 118.724 267.836 115.613 262.459 115.017 258.351 C 114.567 255.24 114.727 252.982 115.017 250.573 C 115.171 249.302 115.67 248.407 116.062 247.332 C 114.492 246.878 112.899 246.058 110.647 244.695 C 104.212 240.799 89.776 228.061 83.943 222.139 C 80.116 218.254 77.877 213.931 76.424 212.547 C 75.794 211.946 75.789 212.404 75.128 211.769 C 73.466 210.171 67.287 203.561 65.795 199.843 C 65.58 199.307 65.403 198.781 65.261 198.263 C 65.248 198.262 65.234 198.261 65.221 198.259 C 60.246 197.699 59.079 195.806 57.184 194.111 C 55.596 192.689 54.767 191.137 54.073 189.185 C 53.292 186.986 52.428 184.204 53.036 181.407 C 53.778 177.995 54.08 173.427 59.518 170.259 C 70.405 163.916 120.703 158.329 131.592 157.815 Z" style="stroke-width: 2px; stroke: rgb(0, 0, 0);"/>
  <line style="stroke: rgb(0, 0, 0); stroke-width: 17px;" x1="153.186" y1="147.423" x2="154.192" y2="338.282"/>
</svg>